<svg xmlns="http://www.w3.org/2000/svg" height="800" width="1200" version="1.0" viewBox="-57.241065 -17.500975 496.08923 105.00585"><path d="M16.4286 68.5716H0V3.036h22.5L47.8571 40V3.036H64.643v65.5356h-17.5L16.4286 23.2143zm83.2187-51.4427c-22.7297 0-30 14.0993-30 27.3437 0 19.2998 17.6664 25.1563 30 25.1563 14.3019 0 24.8125-3.9062 24.8125-3.9063v-13.058c-4.351 2.512-9.9403 6.433-20.5312 6.433-9.823 0-17.8438-5.2704-17.8438-12.8437h39.2813c0-16.0564-3.3633-29.125-25.7188-29.125zm-1.4375 9.4687c9.7136 0 10.1875 10.375 10.1875 10.375H86.6161s1.3925-10.375 11.5937-10.375zm32.3258-7.669H147.5v29.4643c0 6.4933 5.1782 8.75 8.9286 8.75 5.3264 0 11.25-2.8572 11.25-2.8572V18.9286h16.25v48.75h-16.6072v-4.1072c-2.2392 2.2393-10.689 6.25-18.0357 6.25-17.2861 0-18.7501-15.3571-18.7501-15.3571zm106.2501 1.7857v12.8571s-14.929-6.6326-21.6071-5.8928c-3.0726.3403-8.9871 1.7323-9.1072 4.8214-.1671 4.302 9.5654 4.3652 17.821 6.025 9.283 1.8662 14.8576 7.1706 14.8576 13.7964 0 14.0308-15.0567 17.3215-25.3571 17.3215-10.1222 0-24.4643-4.2858-24.4643-4.2858v-12.5s15.0353 6.6072 21.9643 6.6072c3.8402 0 11.2646-.092 11.4285-3.75.2103-4.6916-9.479-5.3064-15-6.7857-6.6698-1.7872-18.3928-3.3411-18.3928-14.2857 0-9.9779 11.6284-17.3215 28.3928-17.3215 5.4663 0 19.4643 3.3929 19.4643 3.3929zm35.3616-3.3979c-11.6918 0-29.2812 5.814-29.2812 25.7187 0 11.7859 6.7497 26.9688 28.5625 26.9688 11.8597 0 30.1875-5.8109 30.1875-25.5313 0-19.5172-14.057-27.1562-29.4688-27.1562zm-.5312 10.5312c6.1057-.1694 12.5 5.3429 12.5 16.0938 0 10.0323-6.0436 15.6926-11.9688 15.6875-5.85-.005-11.7812-6.108-11.7812-15.5313 0-9.8572 5.323-16.0854 11.25-16.25zm56.4196 40.5453h-16.2501V29.6426h-8.3927v-10.893h8.3927v-6.9639C311.7856 6.691 319.2563 0 328.9286 0h8.9285l6.6072.8929V11.25S337.8333 10 335.357 10c-3.0119 0-7.6785 2.5756-7.6785 4.6429v4.1067h20.3571V11.25l17.1429-6.4286v13.9282h16.25v10.893h-16.25v24.286c0 2.7698 5.1785 4.8214 7.8571 4.8214 2.8166 0 8.5714-1.9643 8.5714-1.9643V67.768s-8.5695 1.3392-12.3214 1.3392c-14.7078 0-20.7143-5.9997-20.7143-11.4285v-28.036h-20.3571z" fill="#185b9f" fill-rule="evenodd"/></svg>